<?xml version="1.0" encoding="UTF-8"?>
<svg id="_图层_2" data-name="图层 2" xmlns="http://www.w3.org/2000/svg" viewBox="0 0 687.55 206.09">
  <defs>
    <style>
      .cls-1 {
        fill: #d86600;
      }

      .cls-1, .cls-2, .cls-3, .cls-4 {
        stroke-width: 0px;
      }

      .cls-5 {
        font-size: 121.11px;
      }

      .cls-5, .cls-6 {
        font-family: Poppins-ExtraBold, Poppins;
        font-weight: 700;
      }

      .cls-5, .cls-4 {
        fill: #e87500;
      }

      .cls-2, .cls-6 {
        fill: #235785;
      }

      .cls-3 {
        fill: #fff;
      }

      .cls-6 {
        font-size: 84.49px;
      }
    </style>
  </defs>
  <g id="_图层_1-2" data-name="图层 1">
    <g>
      <text class="cls-6" transform="translate(233.33 154.05)"><tspan x="0" y="0">Workshop</tspan></text>
      <text class="cls-5" transform="translate(191.67 103.48)"><tspan x="0" y="0">Render</tspan></text>
      <g>
        <path class="cls-1" d="M74.67,106.76c-3.68,10.24-4.97,23.32-3.32,34.41.67,4.54,1.93,11.24,6.15,13.76,4.4,2.63,8.92,1.46,11.47-2.89,2.26-3.85,2.2-9.6,1.77-14.05-1.24-12.87-.28-23.44,8.23-33.16.34-.39,2.07-5.88,1.57-6.67-8.09-12.68-21.98-2.25-25.87,8.59"/>
        <path class="cls-4" d="M123.02,128.91c8.76,3.58,19.85,5.01,29.2,3.69,3.83-.54,9.46-1.55,11.49-5.41,2.11-4.01,1.01-8.16-2.72-10.59-3.31-2.14-8.17-2.2-11.93-1.88-10.85.9-19.79-.16-28.23-8.17-.33-.32-5.01-2.02-5.68-1.55-10.53,7.19-1.36,20.15,7.87,23.92"/>
        <path class="cls-4" d="M41.77,134.27c-8.76,3.57-19.85,5-29.19,3.68-3.83-.54-9.45-1.55-11.49-5.41-2.11-4.01-1.02-8.16,2.71-10.59,3.31-2.14,8.17-2.2,11.93-1.88,10.85.91,19.79-.16,28.23-8.17.33-.32,5.02-2.02,5.68-1.55,10.52,7.19,1.36,20.15-7.88,23.92"/>
        <path class="cls-4" d="M83.24,127.81c1.08,10.83,5.55,23.19,11.82,32.5,2.56,3.8,6.56,9.32,11.47,9.77,5.12.48,8.67-2.53,9.11-7.54.38-4.45-2.15-9.61-4.46-13.44-6.66-11.09-10.35-21.02-6.84-33.46.13-.5-.66-6.2-1.46-6.7-12.75-7.96-20.8,7.44-19.65,18.88"/>
        <path class="cls-4" d="M79.49,127.81c-1.08,10.83-5.55,23.19-11.82,32.5-2.56,3.8-6.57,9.32-11.47,9.77-5.12.48-8.68-2.53-9.11-7.54-.38-4.45,2.15-9.61,4.46-13.44,6.66-11.09,10.35-21.02,6.84-33.46-.14-.5.66-6.2,1.47-6.7,12.74-7.96,20.8,7.44,19.64,18.88"/>
        <path class="cls-4" d="M68.82,108.37c-1.09,10.83-5.55,23.19-11.82,32.5-2.56,3.81-6.58,9.32-11.48,9.77-5.11.47-8.67-2.53-9.1-7.54-.39-4.45,2.14-9.61,4.45-13.45,6.67-11.08,10.35-21.02,6.84-33.46-.13-.5.66-6.2,1.47-6.7,12.75-7.96,20.8,7.44,19.64,18.88"/>
        <path class="cls-4" d="M91.63,103.66c.97,10.29,4.96,22.03,10.57,30.88,2.29,3.62,5.88,8.86,10.26,9.28,4.58.45,7.76-2.4,8.15-7.17.34-4.22-1.92-9.12-3.98-12.77-5.96-10.53-9.25-19.97-6.12-31.79.13-.47-.59-5.89-1.31-6.36-11.41-7.56-18.6,7.07-17.57,17.94"/>
        <path class="cls-4" d="M10.4,81.17C10.4,43.43,41,12.84,78.74,12.84s68.32,30.58,68.32,68.32-30.58,41.49-68.32,41.49-68.33-3.75-68.33-41.49"/>
        <path class="cls-1" d="M47.09,162.53c.15,1.72.68,3.16,1.5,4.36.63-4.19,3.09-8.66,5.17-11.39,7.62-9.96,10.75-21.56,10.97-33.62-15.01-.68-28.3-4.4-34.49-14.28-14-22.36-3.03-55.51,15.19-72.64,12.34-11.6,26.22-18.99,41.09-21.65-2.57-.29-5.15-.47-7.8-.47C40.98,12.83,10.39,43.41,10.39,81.15c0,21.1,9.56,31.55,24.58,36.69-5.87,2.5-12.15,2.8-19.27,2.21-3.76-.31-8.63-.25-11.93,1.88-3.73,2.42-4.82,6.58-2.71,10.59,2.04,3.85,7.67,4.86,11.49,5.41,9.34,1.32,20.44-.11,29.19-3.68,5.26-2.15,10.49-7.28,12.07-12.63,1.86.2,3.75.37,5.69.48.86,9.56-2.53,17.9-7.98,26.98-2.3,3.85-4.83,9.01-4.45,13.45"/>
        <path class="cls-1" d="M116.6,116.43c-5.87,1.19-12.9,2.46-20.34,3.51-.4,8.96,3.12,37.41,18.93,44.72.22-.68.36-1.39.43-2.11.38-4.45-2.15-9.61-4.46-13.44-5.55-9.22-8.96-17.68-7.94-27.42,3.22-.31,6.43-.77,9.61-1.36,2.4,3.75,6.28,6.99,10.18,8.58,8.76,3.58,19.85,5.01,29.2,3.69,3.83-.54,9.46-1.55,11.49-5.41.7-1.36.92-2.7.94-4.02-27.04,9.9-42.34-1.42-48.04-6.75"/>
        <path class="cls-3" d="M67.26,71.14c0,15.11-8.17,27.35-18.26,27.35s-18.26-12.24-18.26-27.35,8.18-27.34,18.26-27.34,18.26,12.23,18.26,27.34M129.05,71.14c0,15.11-8.17,27.35-18.26,27.35s-18.26-12.24-18.26-27.35,8.18-27.34,18.26-27.34,18.26,12.23,18.26,27.34"/>
        <g>
          <ellipse class="cls-2" cx="55.15" cy="67.75" rx="11.75" ry="14.23"/>
          <path class="cls-2" d="M128.28,67.75c0,7.86-5.25,14.23-11.74,14.23s-11.75-6.36-11.75-14.23,5.26-14.24,11.75-14.24,11.74,6.37,11.74,14.24"/>
        </g>
        <path class="cls-3" d="M64.85,67.41c0,4.22-1.53,7.66-3.44,7.66s-3.44-3.43-3.44-7.66,1.54-7.64,3.44-7.64,3.44,3.42,3.44,7.64M126.25,67.41c0,4.22-1.53,7.66-3.44,7.66s-3.44-3.43-3.44-7.66,1.54-7.64,3.44-7.64,3.44,3.42,3.44,7.64"/>
      </g>
    </g>
  </g>
</svg>